<?xml version="1.0" encoding="UTF-8" standalone="no"?>
<svg
   xmlns:dc="http://purl.org/dc/elements/1.1/"
   xmlns:cc="http://creativecommons.org/ns#"
   xmlns:rdf="http://www.w3.org/1999/02/22-rdf-syntax-ns#"
   xmlns:svg="http://www.w3.org/2000/svg"
   xmlns="http://www.w3.org/2000/svg"
   xmlns:sodipodi="http://sodipodi.sourceforge.net/DTD/sodipodi-0.dtd"
   xmlns:inkscape="http://www.inkscape.org/namespaces/inkscape"
   version="1.1"
   width="927"
   height="316"
   viewBox="0 0 927 316"
   xml:space="preserve"
   id="svg28"
   sodipodi:docname="built.svg"><metadata
   id="metadata32"><rdf:RDF><cc:Work
       rdf:about=""><dc:format>image/svg+xml</dc:format><dc:type
         rdf:resource="http://purl.org/dc/dcmitype/StillImage" /></cc:Work></rdf:RDF></metadata><sodipodi:namedview
   pagecolor="#ffffff"
   bordercolor="#666666"
   borderopacity="1"
   objecttolerance="10"
   gridtolerance="10"
   guidetolerance="10"
   inkscape:pageopacity="0"
   inkscape:pageshadow="2"
   inkscape:window-width="640"
   inkscape:window-height="480"
   id="namedview30"
   fit-margin-top="50"
   fit-margin-left="50"
   fit-margin-right="50"
   fit-margin-bottom="50" />
<desc
   id="desc2">Created with Fabric.js 5.3.0</desc>
<defs
   id="defs4">
</defs>
<rect
   width="926.29999"
   height="315.29999"
   fill="#ffffff"
   x="0.40000153"
   y="0.40000153"
   id="rect6" /><g
   transform="translate(585.98,158.3)"
   id="base_text">
		<g
   aria-label="JUMBATEC"
   id="text10"
   style="font-style:normal;font-weight:normal;font-size:120px;font-family:f41437;white-space:pre;opacity:1;fill:#106c93;fill-rule:nonzero;stroke:none;stroke-width:1;stroke-linecap:butt;stroke-linejoin:miter;stroke-miterlimit:4;stroke-dasharray:none;stroke-dashoffset:0"><path
     d="m -274.68001,38.180001 q -5.64,0 -10.92,-2.52 -5.16,-2.52 -7.92,-5.04 l 8.4,-12.12 q 3.48,2.76 6,4.44 2.52,1.56 4.08,1.56 0.96,0 1.44,-0.72 0.6,-0.72 0.6,-2.4 v -54 l -9.6,-1.44 1.8,-11.16 h 31.68 v 10.92 l -8.16,0.84 v 50.16 q 0,6.96 -1.68,11.28 -1.68,4.2 -4.32,6.48 -2.64,2.16 -5.64,3 -3,0.72 -5.76,0.72 z"
     id="path34" /><path
     d="m -203.76009,38.180001 q -12,0 -18.96,-3.6 -6.96,-3.6 -9.96,-10.32 -2.88,-6.84 -2.88,-16.3200002 V -33.459999 l -8.04,-1.08 v -10.68 h 32.28 v 10.56 l -8.52,1.32 V 7.7000008 q 0,9.0000002 3.48,13.4400002 3.6,4.44 12.6,4.44 4.8,0 8.16,-1.8 3.36,-1.92 5.16,-5.88 1.8,-4.08 1.8,-10.3200002 V -33.579999 l -7.68,-1.08 v -10.56 h 27.36 v 10.92 l -7.08,1.56 V 7.9400008 q 0,9.2400002 -3.24,16.0800002 -3.12,6.84 -9.36,10.56 -6.12,3.6 -15.12,3.6 z"
     id="path36" /><path
     d="m -159.60031,37.700001 -0.72,-10.44 7.08,-0.96 v -59.52 l -6.6,-0.72 v -11.28 h 30.84 l 17.28,61.56 17.400004,-61.56 h 28.68 l 1.8,11.16 -6.6,1.44 v 59.04 l 6.12,0.84 v 10.44 h -25.44 l -1.08,-10.8 5.28,-1.56 v -59.28 l -20.040004,70.08 h -16.08 l -19.56,-69.24 v 59.04 l 5.52,1.32 0.12,10.44 z"
     id="path38" /><path
     d="m -51.72048,37.700001 -1.68,-10.2 7.68,-1.8 v -59.28 l -8.4,-0.84 v -10.8 h 33.24 q 8.52,0 14.5199997,2.88 5.99999995,2.88 9.12,7.8 3.24,4.92 3.24,11.04 0,5.52 -2.28,9.6 -2.28,3.9599998 -5.52,6.2399998 -3.12,2.28 -5.64,2.88 5.16,1.32 8.88,3.83999996 3.72,2.52000004 5.76,6.60000004 2.16,3.96 2.16,9.6000002 0,11.28 -7.44,16.92 -7.32,5.52 -19.1999997,5.52 z m 21.72,-12.6 h 8.88 q 3.84,0 6.96,-0.96 3.24,-1.08 5.1599997,-3.48 1.92,-2.52 1.92,-6.84 0,-6.0000002 -4.1999997,-8.7600002 -4.08,-2.88 -11.76,-2.88 h -6.96 z m 0,-35.52 h 7.08 q 4.2,0 6.96,-1.44 2.76,-1.44 4.08,-3.96 1.44,-2.64 1.44,-5.88 0,-6 -4.32,-8.4 -4.2,-2.52 -9.84,-2.52 h -5.4 z"
     id="path40" /><path
     d="m 14.159371,37.700001 -1.56,-9.36 6.6,-2.16 23.76,-71.4 h 14.88 l 24.12,71.4 5.52,2.16 -1.2,9.36 h -31.2 v -9 l 9.6,-2.52 -4.32,-14.64 h -23.52 l -4.56,15.12 10.56,1.92 v 9.12 z m 26.4,-38.7600002 h 14.52 l -6.36,-27.1199998 z"
     id="path42" /><path
     d="m 99.479067,37.700001 -1.2,-9.6 13.800003,-2.64 v -58.08 H 98.519067 l -5.16,12 h -9.24 l 2.28,-24.6 h 66.600003 l 2.64,24.48 h -9.12 l -5.28,-11.88 h -13.68 v 58.08 l 13.92,2.64 -1.2,9.6 z"
     id="path44" /><path
     d="m 163.07906,37.700001 -1.68,-10.56 7.8,-1.56 v -59.28 l -7.56,-0.84 v -10.68 h 54.72 l 2.28,24.48 h -9.36 l -4.92,-11.88 h -19.44 v 21.36 h 18.24 V 1.3400008 h -18.24 V 25.100001 h 20.28 l 4.44,-11.88 h 9.48 l -2.52,24.48 z"
     id="path46" /><path
     d="m 267.11885,38.180001 q -8.04,0 -15.36,-2.52 -7.32,-2.52 -12.96,-7.56 -5.64,-5.16 -8.88,-12.72 -3.24,-7.6800002 -3.24,-17.7600002 0,-10.5599998 3.36,-18.4799998 3.36,-8.04 9,-13.44 5.76,-5.4 12.84,-8.16 7.08,-2.76 14.4,-2.76 8.04,0 13.2,1.2 5.16,1.08 7.08,1.68 l 2.4,24.84 h -9.72 l -7.08,-14.88 q -0.84,-0.12 -1.8,-0.12 -0.96,-0.12 -2.88,-0.12 -6.6,0 -12.24,3.48 -5.52,3.48 -8.88,9.84 -3.36,6.36 -3.6,15.2399998 0.12,8.64 3.24,15.3600002 3.12,6.6 8.64,10.44 5.64,3.84 13.08,3.84 4.92,0 9.84,-1.8 5.04,-1.8 8.4,-5.28 l 5.04,10.68 q -2.16,2.52 -6,4.56 -3.72,2.04 -8.4,3.24 -4.68,1.2 -9.48,1.2 z"
     id="path48" /></g>
</g><g
   transform="matrix(0.43,0,0,0.43,156.29,157.8)"
   id="main_icon">
<g
   id="g25">
		<g
   transform="matrix(0.88,0,0,0.88,-36.47,-30.98)"
   id="g15">
<path
   style="opacity:1;fill:#106c93;fill-rule:nonzero;stroke:none;stroke-width:1;stroke-linecap:butt;stroke-linejoin:miter;stroke-miterlimit:4;stroke-dasharray:none;stroke-dashoffset:0"
   transform="translate(-237.61,-247.8)"
   d="m 209.92,494.82 c -0.24554,-0.58834 -0.53642,-1.15672 -0.87,-1.7 -0.42097,-0.51273 -0.87175,-1.00024 -1.35,-1.46 -33.08,-31.63 -48.64,-71.78 -54.92,-115.9 -5.17,-36.28 -2.48,-72.42 6.9,-107.89 10.88,-41.12 29.37,-78.21 61.11,-107.29 25.93,-23.76 56.26,-34.15 91.61,-25.84 1.3,0.3 3.62,-0.91 4.5,-2.12 7.83,-10.71 17.35,-19.14 29.73,-24.33 14.28,-6 29.23,-7.6 44.46,-7.69 26.14,-0.15 52.28,-0.16 78.41,-0.25 1.39,0 2.77,-0.18 5.72,-0.39 -4.39,-2.92 -7.46,-5.11 -10.67,-7.06 -12,-7.28 -25.44,-10.69 -38.94,-13.48 C 405.13,75.19 390.26,64.88 378.66,46.7 348.84,0 291.77,-13.1 243.25,13.93 214.93,29.7 196.65,54.24 183.63,83 c -12.26,27.07 -17,55.87 -16.93,85.52 0,2.41 -0.67,5.52 -2.24,7.13 -13.27,13.58 -23.74,29.11 -32.93,45.6 -18.77,33.68 -27.38,69.43 -22,108 0.2,1.49 0.36,3 0.52,4.47 0.16,1.47 0.3,2.95 0.45,4.42 l -1.65,0.21 c -28,-46.25 -39.54,-96.25 -32,-150.19 10.73,-76.84 52.55,-132.29 119.27,-171 -1.58957,0.21477 -3.16068,0.54905 -4.7,1 -13.78,5.29 -28.19,9.4 -41.19,16.2 C 86.71,67.56 43,118.57 17.66,185.37 1.8,227.19 -2.88,270.53 1.63,315 q 7.68,75.39 53.78,135.53 c 7.3,9.49 15,18.86 26.28,24.08 40.61,18.82 83.56,22.95 128.23,20.21 z M 316.12,53.35 c 6.88,-0.19 13.39,6.27 13.4,13.32 -0.0331,7.003907 -5.72602,12.661099 -12.73,12.65 -6.6,0.12 -12.76,-6.24 -12.86,-13.28 0.10493,-6.772948 5.42674,-12.313035 12.19,-12.69 z"
   stroke-linecap="round"
   id="path13" />
</g>
		<g
   transform="matrix(0.88,0,0,0.88,62.5,62.92)"
   id="g19">
<path
   style="opacity:1;fill:#106c93;fill-rule:nonzero;stroke:none;stroke-width:1;stroke-linecap:butt;stroke-linejoin:miter;stroke-miterlimit:4;stroke-dasharray:none;stroke-dashoffset:0"
   transform="translate(-350.08,-354.51)"
   d="m 516.75,143 c -0.10662,0.32192 -0.14742,0.66199 -0.12,1 14.09898,43.81079 16.17117,90.60443 6,135.49 -13.56,61 -44.18,112.06 -89.48,154.87 -51.15,48.29 -111.82,77.64 -180.6,90.77 -36.27716,6.9401 -73.46445,7.71765 -110,2.3 86.14,54 224.57,61.34 331.82,-43.57 C 573.53,386.87 579.41,237.7 516.75,143 Z"
   stroke-linecap="round"
   id="path17" />
</g>
		<g
   transform="matrix(0.88,0,0,0.88,76.09,28.69)"
   id="g23">
<path
   style="opacity:1;fill:#106c93;fill-rule:nonzero;stroke:none;stroke-width:1;stroke-linecap:butt;stroke-linejoin:miter;stroke-miterlimit:4;stroke-dasharray:none;stroke-dashoffset:0"
   transform="translate(-365.52,-315.62)"
   d="m 400,308 c 7.64,9.39 15.38,18.69 22.88,28.19 4.84,6.13 9,12.83 14.06,18.75 5.27,6.15 13.31,4.33 16.16,-3.29 0.64047,-1.89035 0.99768,-3.86507 1.06,-5.86 1.24,-22 -2.92,-43.11 -11.38,-63.31 -18.09,-43.21 -47.42,-77.95 -83.16,-107.47 -10.94,-9 -23.25,-16.41 -34.93,-24.55 l -1.2,1.42 c 0.33,0.72 0.64,1.46 1,2.18 11.86,24.78 22.89,49.9 30.44,76.41 12.24,43 15.63,86.46 4.48,130.14 -12.46,48.82 -38.42,88.79 -80.2,117.83 -0.88479,0.69521 -1.73262,1.43622 -2.54,2.22 0.48374,0.096 0.97735,0.13299 1.47,0.11 32.32,-8.6 62,-22.93 89.47,-41.85 4.58849,-2.92701 8.19377,-7.16278 10.35,-12.16 15.71,-36.83 24,-74.92 20.79,-115.15 -0.08,-1 0,-2 0,-3 z"
   stroke-linecap="round"
   id="path21" />
</g>
</g>
</g></svg>
